<svg id="Capa_1" enable-background="new 0 0 512 512" height="512" viewBox="0 0 512 512" width="512" xmlns="http://www.w3.org/2000/svg"><g><path d="m509.682 388.574-31.987-50.647h-443.39l-31.987 50.647c-3.731 5.908-2.889 13.61 2.032 18.572 15.167 15.294 40.98 37.888 77.819 58.664 54.345 30.649 112.829 46.19 173.831 46.19s119.486-15.541 173.831-46.19c36.839-20.776 62.652-43.37 77.819-58.664 4.921-4.962 5.764-12.664 2.032-18.572z" fill="#beda4b"/><path d="m477.695 337.927h-221.695v174.073c61.002 0 119.486-15.541 173.831-46.19 36.839-20.776 62.652-43.37 77.819-58.664 4.921-4.962 5.764-12.664 2.032-18.572z" fill="#14cd6e"/><path d="m256 441.708c119.024 0 193.963-72.974 214.096-95.339l7.599-8.442-209.012-330.937c-2.749-4.351-7.537-6.99-12.683-6.99s-9.934 2.639-12.683 6.99l-209.012 330.937 7.599 8.442c20.133 22.366 95.072 95.339 214.096 95.339z" fill="#ff4169"/><path d="m470.096 346.369 7.599-8.442-209.012-330.937c-2.749-4.351-7.537-6.99-12.683-6.99v441.708c119.024 0 193.963-72.973 214.096-95.339z" fill="#cf3160"/><circle cx="256" cy="331" fill="#00429b" r="15"/><circle cx="336" cy="316" fill="#00337a" r="15"/><circle cx="176" cy="316" fill="#00429b" r="15"/><circle cx="256" cy="156" fill="#00429b" r="15"/><path d="m271 156c0-8.284-6.716-15-15-15v30c8.284 0 15-6.716 15-15z" fill="#00337a"/><path d="m271 331c0-8.284-6.716-15-15-15v30c8.284 0 15-6.716 15-15z" fill="#00337a"/><circle cx="216" cy="236" fill="#00429b" r="15"/><circle cx="296" cy="236" fill="#00337a" r="15"/></g></svg>