<svg id="Capa_1" enable-background="new 0 0 512 512" height="512" viewBox="0 0 512 512" width="512" xmlns="http://www.w3.org/2000/svg"><g><path d="m466 287-16.552 173.792c-1.955 20.53-19.197 36.208-39.819 36.208h-307.258c-20.622 0-37.865-15.678-39.82-36.208l-16.551-173.792z" fill="#9d5e4a"/><path d="m256 497h153.629c20.622 0 37.865-15.678 39.82-36.208l16.551-173.792h-210z" fill="#734536"/><path d="m477.098 276.909c-2.843-3.127-6.872-4.909-11.098-4.909h-420c-4.226 0-8.255 1.782-11.098 4.909s-4.235 7.307-3.834 11.514l16.552 173.792c2.702 28.382 26.241 49.785 54.752 49.785h307.257c28.511 0 52.049-21.403 54.752-49.785l16.552-173.792c.4-4.208-.993-8.388-3.835-11.514zm-31.404 65.091h-51.813l2.286-40h53.337zm-376.531 30h50.669l2.286 40h-49.145zm80.719 0h50.735l.762 40h-49.211zm132.068-30h-51.9l-.762-40h53.424zm30.767-40h53.402l-2.286 40h-51.878zm-31.339 70-.762 40h-49.233l-.762-40zm-81.333-30h-51.878l-2.286-40h53.402zm1.905 100 .762 40h-46.544l-2.286-40zm30.005 0h48.09l-.762 40h-46.566zm78.095 0h48.068l-2.286 40h-46.544zm.572-30 .762-40h50.735l-2.286 40zm81.545-40h50.67l-3.81 40h-49.146zm-276.334-70 2.286 40h-51.813l-3.81-40zm-38.349 157.371-1.654-17.371h48.003l2.286 40h-23.747c-12.96 0-23.659-9.729-24.888-22.629zm332.145 22.629h-23.747l2.286-40h48.003l-1.654 17.371c-1.23 12.9-11.929 22.629-24.888 22.629z" fill="#ff9d21"/><path d="m466 272h-210v30h26.712l-.762 40h-25.95v30h25.378l-.762 40h-24.616v30h24.045l-.762 40h-23.283v30h153.629c28.511 0 52.049-21.403 54.752-49.785l16.552-173.792c.4-4.207-.992-8.387-3.835-11.514s-6.872-4.909-11.098-4.909zm-110.167 210h-46.544l.762-40h48.068zm4-70h-49.211l.762-40h50.735zm4-70h-51.878l.762-40h53.402zm70.683 117.371c-1.229 12.9-11.928 22.629-24.887 22.629h-23.747l2.286-40h48.003zm4.511-47.371h-49.146l2.286-40h50.67zm6.667-70h-51.813l2.286-40h53.337z" fill="#ff7038"/><path d="m286 242h-60c-8.284 0-15-6.716-15-15v-202c0-13.785 11.215-25 25-25h40c13.785 0 25 11.215 25 25v202c0 8.284-6.716 15-15 15z" fill="#ff9d21"/><path d="m276 0h-20v242h30c8.284 0 15-6.716 15-15v-202c0-13.785-11.215-25-25-25z" fill="#ff7038"/><g><path d="m497 302h-482c-8.284 0-15-6.716-15-15v-60c0-8.284 6.716-15 15-15h482c8.284 0 15 6.716 15 15v60c0 8.284-6.716 15-15 15z" fill="#ffde46"/></g><path d="m497 212h-241v90h241c8.284 0 15-6.716 15-15v-60c0-8.284-6.716-15-15-15z" fill="#ff9d21"/><path d="m245.393 390.342-178.342-178.342h377.897l-178.341 178.342c-5.858 5.858-15.356 5.858-21.214 0z" fill="#ff4169"/><path d="m256 394.736c3.839 0 7.678-1.465 10.607-4.393l178.341-178.343h-188.948z" fill="#cf3160"/></g></svg>