<svg id="Capa_1" enable-background="new 0 0 512 512" height="512" viewBox="0 0 512 512" width="512" xmlns="http://www.w3.org/2000/svg"><g><path d="m257 406h-202c-8.284 0-15-6.716-15-15v-170c0-8.284 6.716-15 15-15h202c8.284 0 15 6.716 15 15v170c0 8.284-6.716 15-15 15z" fill="#ff7038"/><path d="m75 106c-41.355 0-75 33.645-75 75 0 25.127 16.943 46.356 40 52.904h217l20-127.904z" fill="#ff9d21"/><path d="m457 406h-200c-8.284 0-15-6.716-15-15v-157.079c-23.061-6.545-40-27.791-40-52.921 0-41.355 33.645-75 75-75h160c41.355 0 75 33.645 75 75 0 25.13-16.939 46.376-40 52.921v157.079c0 8.284-6.716 15-15 15z" fill="#ffde46"/><path d="m437 106h-80v300h100c8.284 0 15-6.716 15-15v-157.079c23.061-6.545 40-27.791 40-52.921 0-41.355-33.645-75-75-75z" fill="#ff9d21"/><path d="m272 376h170v-155c0-8.284 6.716-15 15-15 13.785 0 25-11.215 25-25 0-24.813-20.187-45-45-45h-160c-24.813 0-45 20.187-45 45 0 13.785 11.215 25 25 25 8.284 0 15 6.716 15 15z" fill="#f5f0eb"/><path d="m437 136h-80v240h85v-155c0-8.284 6.716-15 15-15 13.785 0 25-11.215 25-25 0-24.813-20.187-45-45-45z" fill="#ebe1dc"/><circle cx="312" cy="329" fill="#ebe1dc" r="15"/><circle cx="402" cy="329" fill="#dcc8be" r="15"/><circle cx="357" cy="256" fill="#ebe1dc" r="15"/><path d="m372 256c0-8.284-6.716-15-15-15v30c8.284 0 15-6.716 15-15z" fill="#dcc8be"/><circle cx="312" cy="183" fill="#ebe1dc" r="15"/><circle cx="402" cy="183" fill="#dcc8be" r="15"/></g></svg>