<svg id="Capa_1" enable-background="new 0 0 512 512" height="512" viewBox="0 0 512 512" width="512" xmlns="http://www.w3.org/2000/svg"><g><path d="m46.606 49.393c-5.857-5.857-15.355-5.857-21.213 0s-5.858 15.355 0 21.213l50 50 21.213-21.213z" fill="#cf3160"/><path d="m416 512h-320c-35.841 0-65-29.159-65-65v-161.672c0-20.849 4.928-41.726 14.252-60.374l21.478-42.955 378.541-.001 21.478 42.956c9.323 18.649 14.251 39.525 14.251 60.374v161.672c0 35.841-29.159 65-65 65z" fill="#ffde46"/><path d="m445.27 181.998h-189.27v330.002h160c35.841 0 65-29.159 65-65v-161.672c0-20.849-4.928-41.726-14.252-60.374z" fill="#ff9d21"/><path d="m396 442h-280c-8.284 0-15-6.716-15-15v-160c0-8.284 6.716-15 15-15h280c8.284 0 15 6.716 15 15v160c0 8.284-6.716 15-15 15z" fill="#f5f0eb"/><path d="m396 252h-140v190h140c8.284 0 15-6.716 15-15v-160c0-8.284-6.716-15-15-15z" fill="#ebe1dc"/><path d="m131 282h250v130h-250z" fill="#ff4169"/><path d="m256 282h125v130h-125z" fill="#cf3160"/><path d="m336 362h-160c-8.284 0-15-6.716-15-15s6.716-15 15-15h160c8.284 0 15 6.716 15 15s-6.716 15-15 15z" fill="#f5f0eb"/><path d="m336 332h-80v30h80c8.284 0 15-6.716 15-15s-6.716-15-15-15z" fill="#ebe1dc"/><path d="m435.947 212c-19.552 0-29.971-6.939-38.342-12.516-6.766-4.507-11.236-7.484-21.711-7.484-10.462 0-14.928 2.977-21.687 7.481-8.368 5.578-18.782 12.519-38.326 12.519-19.534 0-29.942-6.943-38.304-12.521-6.75-4.504-11.21-7.479-21.656-7.479-10.456 0-14.919 2.976-21.675 7.48-8.366 5.577-18.777 12.52-38.318 12.52-19.537 0-29.947-6.942-38.311-12.521-6.753-4.504-11.214-7.479-21.666-7.479s-14.913 2.976-21.666 7.479c-8.363 5.579-18.772 12.521-38.309 12.521-19.538 0-29.947-6.942-38.311-12.521-6.753-4.503-11.214-7.479-21.665-7.479-6.277 0-11.891-3.908-14.068-9.796-2.178-5.887-.459-12.508 4.307-16.593l70-60c2.718-2.33 6.18-3.611 9.761-3.611h340c3.581 0 7.043 1.281 9.762 3.611l70 60c4.766 4.085 6.484 10.706 4.307 16.593-2.178 5.888-7.792 9.796-14.069 9.796-10.475 0-14.945 2.978-21.711 7.484-8.372 5.577-18.791 12.516-38.342 12.516z" fill="#f5f0eb"/><path d="m505.762 165.611-70-60c-2.719-2.33-6.181-3.611-9.762-3.611h-170v90.001c10.388.015 14.844 2.985 21.577 7.477 8.362 5.578 18.77 12.521 38.304 12.521 19.544 0 29.958-6.941 38.325-12.519 6.759-4.505 11.225-7.481 21.687-7.481 10.475 0 14.945 2.978 21.711 7.484 8.372 5.576 18.791 12.516 38.342 12.516s29.97-6.939 38.342-12.516c6.767-4.505 11.237-7.483 21.712-7.483 6.277 0 11.891-3.908 14.068-9.796 2.178-5.887.46-12.508-4.306-16.593z" fill="#ebe1dc"/><path d="m71 110.101h370v-55.101c0-30.376-24.624-55-55-55h-260c-30.376 0-55 24.624-55 55z" fill="#f5f0eb"/><path d="m386 0h-130v110.101h185v-55.101c0-30.376-24.624-55-55-55z" fill="#ebe1dc"/><path d="m86 125h-70c-8.284 0-15-6.716-15-15s6.716-15 15-15h70c8.284 0 15 6.716 15 15s-6.716 15-15 15z" fill="#ff4169"/><g><path d="m455 125h-398c-8.284 0-15-6.716-15-15s6.716-15 15-15h398c8.284 0 15 6.716 15 15s-6.716 15-15 15z" fill="#ff4169"/><path d="m455 95h-199v30h199c8.284 0 15-6.716 15-15s-6.716-15-15-15z" fill="#cf3160"/></g></g></svg>